<svg version="1" xmlns="http://www.w3.org/2000/svg" width="400" height="400" viewBox="0 0 300.000000 300.000000"><path d="M134.7 50.5C119.2 55.8 107 74 107.5 91c.1 4.3.8 7.8 2.2 10.5l2 4-3.4 3.5c-1.9 1.9-5 5.7-7.1 8.5-2 2.7-3.9 5.2-4.3 5.5-3.2 2.5-20.3 34-23.9 44-4.8 13.4-2.8 32.4 4.7 43.3 3 4.3 10.2 10.6 15.1 13.1 1.7.9 3.2 2 3.2 2.4 0 1.6-1.7 2.7-4.5 3.1-3.8.4-9.4 3.4-12.1 6.3-6.4 7.2-7.6 19.8-2.6 26 2.7 3.3 4.1 4.6 5.2 5 .5.1 1.1 3.7 1.3 7.8.4 7.7-1.3 17.2-3.8 22.4-.8 1.6-1.5 3.1-1.5 3.3 0 .1 29.6.3 65.8.3h65.8l.1-3.8c.2-7.2.3-8.5.9-8 .3.4.7 1.2.8 2 .1.7 1.1 3.2 2.2 5.5l1.9 4.3h11.7c6.5 0 11.8-.4 11.8-.9s-.4-1.1-.9-1.3c-.9-.3-8.9-16.5-9.6-19.5-.3-1-1.1-4.5-2-7.8-1.5-6-1.5-6 .9-8.1 6.4-5.7 9-17.6 5.5-24.9-1.1-2.1-1.9-4.2-1.9-4.7 0-1.3-7.9-8.1-11.6-10.1-1.9-1-4-1.5-4.6-1.1-.7.4-.8.3-.4-.4.7-1.1-.7-1.5-5.6-1.5-1 0-1.8-.1-1.8-.2s.8-1.1 1.8-2.3c.9-1.1 2.4-2.9 3.2-3.9 2.8-3.3 6.7-13.1 7.6-19.1 1.2-7.9.1-23.9-1.9-29.2-.3-.8-1.5-4.5-2.7-8.2-4.1-13-15.4-31-27.5-43.9-6.1-6.6-15.8-14.9-17.4-14.9-.6 0-1.1-.3-1.1-.8 0-1-6.6-4.5-8.5-4.5-1.5 0-2.1-3.8-.8-5.1 1.1-1.1 1.5-3.7 1.5-12.6.1-8.7-1.7-14.4-6.1-19.4-4.3-4.9-14-7.3-20.4-5.1z"/></svg>